<svg width="21" height="23" viewBox="0 0 21 23" fill="none" xmlns="http://www.w3.org/2000/svg">
<path d="M21 14V18.375C21 18.8391 20.8156 19.2842 20.4874 19.6124C20.1592 19.9406 19.7141 20.125 19.25 20.125H11.375V21.875C11.375 22.1071 11.2828 22.3296 11.1187 22.4937C10.9546 22.6578 10.7321 22.75 10.5 22.75C10.2679 22.75 10.0454 22.6578 9.88128 22.4937C9.71719 22.3296 9.625 22.1071 9.625 21.875V20.125H1.75C1.28587 20.125 0.840752 19.9406 0.512563 19.6124C0.184374 19.2842 0 18.8391 0 18.375V14C0 13.5359 0.184374 13.0908 0.512563 12.7626C0.840752 12.4344 1.28587 12.25 1.75 12.25H9.625V10.5H4.375C3.91087 10.5 3.46575 10.3156 3.13756 9.98744C2.80937 9.65925 2.625 9.21413 2.625 8.75V4.375C2.625 3.91087 2.80937 3.46575 3.13756 3.13756C3.46575 2.80937 3.91087 2.625 4.375 2.625H9.625V0.875C9.625 0.642936 9.71719 0.420376 9.88128 0.256282C10.0454 0.0921872 10.2679 0 10.5 0C10.7321 0 10.9546 0.0921872 11.1187 0.256282C11.2828 0.420376 11.375 0.642936 11.375 0.875V2.625H16.625C17.0891 2.625 17.5342 2.80937 17.8624 3.13756C18.1906 3.46575 18.375 3.91087 18.375 4.375V8.75C18.375 9.21413 18.1906 9.65925 17.8624 9.98744C17.5342 10.3156 17.0891 10.5 16.625 10.5H11.375V12.25H19.25C19.7141 12.25 20.1592 12.4344 20.4874 12.7626C20.8156 13.0908 21 13.5359 21 14Z" fill="#CDD5E0"/>
</svg>
