<svg width="163" height="88" viewBox="0 0 163 88" fill="none" xmlns="http://www.w3.org/2000/svg">
<g style="mix-blend-mode:overlay" filter="url(#filter0_f_11451_719)">
<path d="M10.9243 45.6363L93.6594 -17.9211L162.438 60.9985L1.28528 -12.5996L150.389 5.67445L61.4288 64.814L55.2036 19.1289L93.6594 11.8997L110.026 70.6375L18.1536 21.5387L48.878 -27.0581L38.3353 78.7705L125.89 85.9998L150.389 29.27" stroke="white" stroke-width="1.35399" stroke-dasharray="0.2 20.08"/>
</g>
<g style="mix-blend-mode:overlay" filter="url(#filter1_f_11451_719)">
<path d="M10.9243 45.6363L93.6594 -17.9211L162.438 60.9985L1.28528 -12.5996L150.389 5.67445L61.4288 64.814L55.2036 19.1289L93.6594 11.8997L110.026 70.6375L18.1536 21.5387L48.878 -27.0581L38.3353 78.7705L125.89 85.9998L150.389 29.27" stroke="white" stroke-width="1.35399" stroke-dasharray="0.2 20.08"/>
</g>
<g style="mix-blend-mode:overlay" filter="url(#filter2_f_11451_719)">
<path d="M10.9243 45.6363L93.6594 -17.9211L162.438 60.9985L1.28528 -12.5996L150.389 5.67445L61.4288 64.814L55.2036 19.1289L93.6594 11.8997L110.026 70.6375L18.1536 21.5387L48.878 -27.0581L38.3353 78.7705L125.89 85.9998L150.389 29.27" stroke="white" stroke-width="1.35399" stroke-dasharray="0.2 20.08"/>
</g>
<g style="mix-blend-mode:overlay" filter="url(#filter3_f_11451_719)">
<path d="M10.9243 45.6363L93.6594 -17.9211L162.438 60.9985L1.28528 -12.5996L150.389 5.67445L61.4288 64.814L55.2036 19.1289L93.6594 11.8997L110.026 70.6375L18.1536 21.5387L48.878 -27.0581L38.3353 78.7705L125.89 85.9998L150.389 29.27" stroke="white" stroke-width="1.35399" stroke-dasharray="0.2 20.08"/>
</g>
<defs>
<filter id="filter0_f_11451_719" x="-3.8147e-05" y="-28.4239" width="163.952" height="116.142" filterUnits="userSpaceOnUse" color-interpolation-filters="sRGB">
<feFlood flood-opacity="0" result="BackgroundImageFix"/>
<feBlend mode="normal" in="SourceGraphic" in2="BackgroundImageFix" result="shape"/>
<feGaussianBlur stdDeviation="0.502033" result="effect1_foregroundBlur_11451_719"/>
</filter>
<filter id="filter1_f_11451_719" x="-3.8147e-05" y="-28.4239" width="163.952" height="116.142" filterUnits="userSpaceOnUse" color-interpolation-filters="sRGB">
<feFlood flood-opacity="0" result="BackgroundImageFix"/>
<feBlend mode="normal" in="SourceGraphic" in2="BackgroundImageFix" result="shape"/>
<feGaussianBlur stdDeviation="0.502033" result="effect1_foregroundBlur_11451_719"/>
</filter>
<filter id="filter2_f_11451_719" x="-3.8147e-05" y="-28.4239" width="163.952" height="116.142" filterUnits="userSpaceOnUse" color-interpolation-filters="sRGB">
<feFlood flood-opacity="0" result="BackgroundImageFix"/>
<feBlend mode="normal" in="SourceGraphic" in2="BackgroundImageFix" result="shape"/>
<feGaussianBlur stdDeviation="0.502033" result="effect1_foregroundBlur_11451_719"/>
</filter>
<filter id="filter3_f_11451_719" x="-3.8147e-05" y="-28.4239" width="163.952" height="116.142" filterUnits="userSpaceOnUse" color-interpolation-filters="sRGB">
<feFlood flood-opacity="0" result="BackgroundImageFix"/>
<feBlend mode="normal" in="SourceGraphic" in2="BackgroundImageFix" result="shape"/>
<feGaussianBlur stdDeviation="0.502033" result="effect1_foregroundBlur_11451_719"/>
</filter>
</defs>
</svg>
